<?xml version="1.0" encoding="iso-8859-1"?>
<!-- Generator: Adobe Illustrator 21.0.0, SVG Export Plug-In . SVG Version: 6.00 Build 0)  -->
<svg version="1.1" id="Capa_1" xmlns="http://www.w3.org/2000/svg" xmlns:xlink="http://www.w3.org/1999/xlink" x="0px" y="0px"
	 viewBox="0 0 587.708 587.708" style="enable-background:new 0 0 587.708 587.708;" xml:space="preserve">
<g>
	<g>
		<g id="flat_28_">
			<path style="fill:#87CED9;" d="M111.471,0.004H557.31c16.79,0,30.398,13.608,30.398,30.398V395.18
				c0,16.79-13.608,30.398-30.398,30.398H111.471c-16.79,0-30.398-13.608-30.398-30.398V30.403
				C81.073,13.613,94.681,0.004,111.471,0.004z"/>
			<path style="fill:#71C4D1;" d="M557.31,0.004h-27.024L105.391,424.96c1.996,0.405,4.033,0.618,6.08,0.618H557.31
				c16.79,0,30.398-13.608,30.398-30.398V30.403C587.708,13.613,574.09,0.004,557.31,0.004z"/>
			<rect x="111.471" y="30.403" style="fill:#5EB3D1;" width="20.265" height="20.265"/>
			<rect x="152.002" y="30.403" style="fill:#5EB3D1;" width="20.265" height="20.265"/>
			<rect x="192.533" y="30.403" style="fill:#5EB3D1;" width="20.265" height="20.265"/>
			<rect x="111.471" y="70.933" style="fill:#5EB3D1;" width="445.839" height="20.265"/>
			<rect x="466.116" y="273.587" style="fill:#5EB3D1;" width="91.194" height="20.265"/>
			<rect x="354.656" y="324.251" style="fill:#5EB3D1;" width="202.654" height="20.265"/>
			<rect x="405.319" y="172.26" style="fill:#5EB3D1;" width="111.46" height="20.265"/>
			<rect x="405.319" y="121.597" style="fill:#5EB3D1;" width="81.062" height="20.265"/>
			<rect x="506.646" y="121.597" style="fill:#5EB3D1;" width="50.663" height="20.265"/>
			<rect x="537.044" y="172.26" style="fill:#5EB3D1;" width="20.265" height="20.265"/>
			<rect x="405.319" y="222.924" style="fill:#5EB3D1;" width="151.99" height="20.265"/>
			<rect x="364.789" y="273.587" style="fill:#5EB3D1;" width="81.062" height="20.265"/>
			<rect x="466.116" y="374.914" style="fill:#5EB3D1;" width="91.194" height="20.265"/>
			<rect x="364.789" y="374.914" style="fill:#5EB3D1;" width="81.062" height="20.265"/>
			<path style="fill:#DADDDF;" d="M60.808,466.109h303.981l0,0v121.592l0,0H60.808c-33.58,0-60.796-27.216-60.796-60.796l0,0l0,0
				C0.011,493.325,27.228,466.109,60.808,466.109z"/>
			<path style="fill:#C1C7C9;" d="M60.808,466.109c-33.58,0-60.796,27.216-60.796,60.796s27.216,60.796,60.796,60.796h50.663
				l121.592-121.592H60.808z"/>
			<rect x="273.594" y="496.507" style="fill:#FDA72F;" width="60.796" height="60.796"/>
			<rect x="152.002" y="496.507" style="fill:#E34B87;" width="60.796" height="60.796"/>
			<path style="fill:#DADDDF;" d="M17.804,483.922l214.945-214.945l0,0l85.976,85.976l0,0L103.791,569.898
				c-23.741,23.741-62.235,23.741-85.976,0l0,0C-5.936,546.157-5.936,507.663,17.804,483.922z"/>
			<path style="fill:#C1C7C9;" d="M141.869,359.867L17.815,483.912c-23.741,23.741-23.741,62.245,0,85.986s62.245,23.741,85.986,0
				l38.069-38.079V359.867z"/>
			
				<rect x="200.199" y="326.709" transform="matrix(0.7071 -0.7071 0.7071 0.7071 -184.9721 267.6509)" style="fill:#87CED9;" width="60.796" height="60.796"/>
			
				<rect x="114.225" y="412.687" transform="matrix(0.7071 -0.7071 0.7071 0.7071 -270.9491 232.0398)" style="fill:#5EB3D1;" width="60.796" height="60.796"/>
			<path style="fill:#DADDDF;" d="M0.011,526.905V222.924l0,0h121.592l0,0v303.981c0,33.58-27.216,60.796-60.796,60.796l0,0
				C27.228,587.701,0.011,560.485,0.011,526.905z"/>
			<circle style="fill:#C1C7C9;" cx="60.808" cy="526.905" r="20.265"/>
			<path style="fill:#E34B87;" d="M202.665,263.455H182.4c-16.79,0-30.398-13.608-30.398-30.398v-16.07l-17.297-17.297
				c-3.952-3.952-3.952-10.376,0-14.328l17.297-17.297v-16.07c0-16.79,13.608-30.398,30.398-30.398h20.265v20.265H182.4
				c-5.593,0-10.133,4.539-10.133,10.133v20.265c0,2.685-1.064,5.269-2.969,7.164l-13.102,13.102l13.102,13.102
				c1.895,1.895,2.959,4.479,2.969,7.164v20.265c0,5.593,4.539,10.133,10.133,10.133h20.265V263.455z"/>
			<path style="fill:#E34B87;" d="M324.258,263.455h-20.265v-20.265h20.265c5.593,0,10.133-4.539,10.133-10.133v-20.265
				c0-2.685,1.064-5.269,2.969-7.164l13.102-13.102l-13.102-13.102c-1.905-1.895-2.969-4.479-2.969-7.164v-20.265
				c0-5.593-4.539-10.133-10.133-10.133h-20.265v-20.265h20.265c16.79,0,30.398,13.608,30.398,30.398v16.07l17.297,17.297
				c3.952,3.952,3.952,10.376,0,14.328l-17.297,17.297v16.07C354.656,249.846,341.038,263.455,324.258,263.455z"/>
			<rect x="202.665" y="202.658" style="fill:#E34B87;" width="20.265" height="20.265"/>
			<rect x="243.196" y="202.658" style="fill:#E34B87;" width="20.265" height="20.265"/>
			<rect x="283.727" y="202.658" style="fill:#E34B87;" width="20.265" height="20.265"/>
			<rect x="30.409" y="253.322" style="fill:#E34B87;" width="60.796" height="60.796"/>
			<rect x="30.409" y="374.914" style="fill:#BF3D75;" width="60.796" height="60.796"/>
		</g>
	</g>
</g>
<g>
</g>
<g>
</g>
<g>
</g>
<g>
</g>
<g>
</g>
<g>
</g>
<g>
</g>
<g>
</g>
<g>
</g>
<g>
</g>
<g>
</g>
<g>
</g>
<g>
</g>
<g>
</g>
<g>
</g>
</svg>
